<svg width="80" height="100" viewBox="0 0 80 100" fill="none" xmlns="http://www.w3.org/2000/svg">
<path d="M66.4 35.7312V55.872C66.4 59.0568 63.1488 61.6 59.9552 61.6H30.2104C29.9312 62.4 29.6416 63.3312 29.2752 64.1048C26.7504 69.4392 22.4 73.5984 16.8 75.9872V75.8928C17.6 74.9128 17.1936 73.8304 17.1936 72.7456C17.1936 69.2512 15.5632 66.104 13.0384 64.0664C11.4136 62.7512 9.408 61.8672 7.2256 61.6288C7.2024 61.6288 7.3608 61.6288 7.3376 61.6208C4.4544 61.2952 2.4 58.8344 2.4 55.872V20.4488C2.4 17.2632 4.6152 14.4 7.808 14.4H44.6008C45.3176 13.6 46.2888 12.8 47.42 12H7.808C3.3008 12 0 15.9416 0 20.4488V55.872C0 58.3728 0.9496 60.6192 2.7256 62.1072C3.928 63.1352 5.3424 63.812 6.9992 63.9952C7.0152 63.9952 6.9944 63.9952 7.0176 64.0032C11.3976 64.4808 14.792 68.2 14.792 72.7072C14.792 74.1728 14.4224 75.5584 13.7848 76.7688C13.1872 77.8992 12.3536 78.88 11.3512 79.66L11.34 79.668C12.7096 79.492 14.0384 79.192 15.3288 78.8096C22.8056 76.6048 28.8728 71.2 31.8592 64H59.956C64.4632 64 68.8 60.3792 68.8 55.872V32.904C68 34.0432 67.2 35.0144 66.4 35.7312Z" fill="#2286C3"/>
<path d="M74.6808 13.6H67.2V5.66C67.2 2.7128 64.9392 0.332001 62 0.332001C59.0608 0.332001 56.8 2.7136 56.8 5.66V12.2776V13.6H50.924C49.8728 13.6 48.8848 14.0224 48.0568 14.532C46.584 15.432 45.604 16.988 45.604 18.8672C45.604 21.8056 47.9856 24 50.924 24H56.8V29.408C56.8 32.3472 58.728 34.7272 61.6672 34.7272C63.5544 34.7272 65.3248 33.748 66.2248 32.2672C66.7344 31.4392 67.2 30.4672 67.2 29.408V24H68.1256H74.68C77.6184 24 79.9992 21.7384 79.9992 18.8C80 15.8608 77.6184 13.6 74.6808 13.6Z" fill="#2286C3"/>
</svg>
